<?xml version="1.0" encoding="UTF-8" standalone="no"?>
<!-- Generator: Adobe Illustrator 23.0.1, SVG Export Plug-In . SVG Version: 6.00 Build 0)  -->

<svg
   xmlns:ns="&amp;ns_sfw;"
   xmlns:dc="http://purl.org/dc/elements/1.1/"
   xmlns:cc="http://creativecommons.org/ns#"
   xmlns:rdf="http://www.w3.org/1999/02/22-rdf-syntax-ns#"
   xmlns:svg="http://www.w3.org/2000/svg"
   xmlns="http://www.w3.org/2000/svg"
   xmlns:sodipodi="http://sodipodi.sourceforge.net/DTD/sodipodi-0.dtd"
   xmlns:inkscape="http://www.inkscape.org/namespaces/inkscape"
   version="1.1"
   id="Livello_1"
   x="0px"
   y="0px"
   viewBox="0 0 533.5 544.3"
   style="enable-background:new 0 0 533.5 544.3;"
   xml:space="preserve"
   sodipodi:docname="google_logo_white.svg"
   inkscape:version="0.92.4 (5da689c313, 2019-01-14)"><defs
   id="defs46" /><sodipodi:namedview
   pagecolor="#ffffff"
   bordercolor="#666666"
   borderopacity="1"
   objecttolerance="10"
   gridtolerance="10"
   guidetolerance="10"
   inkscape:pageopacity="0"
   inkscape:pageshadow="2"
   inkscape:window-width="1920"
   inkscape:window-height="1017"
   id="namedview44"
   showgrid="false"
   inkscape:zoom="0.78081942"
   inkscape:cx="-12.57363"
   inkscape:cy="250.58562"
   inkscape:window-x="-8"
   inkscape:window-y="-8"
   inkscape:window-maximized="1"
   inkscape:current-layer="g41" />
<style
   type="text/css"
   id="style29">
	.st0{fill:#4285F4;}
	.st1{fill:#34A853;}
	.st2{fill:#FBBC04;}
	.st3{fill:#EA4335;}
</style>
<metadata
   id="metadata31">
	<ns:sfw>
		<ns:slices />
		<ns:sliceSourceBounds
   bottomLeftOrigin="true"
   height="544.3"
   width="533.5"
   x="0.1"
   y="110.1" />
	</ns:sfw>
<rdf:RDF><cc:Work
     rdf:about=""><dc:format>image/svg+xml</dc:format><dc:type
       rdf:resource="http://purl.org/dc/dcmitype/StillImage" /><dc:title></dc:title></cc:Work></rdf:RDF></metadata>
<g
   id="g41">
	<path
   class="st0"
   d="M533.5,278.4c0-18.5-1.5-37.1-4.7-55.3H272.1v104.8h147c-6.1,33.8-25.7,63.7-54.4,82.7v68h87.7   C503.9,431.2,533.5,361.2,533.5,278.4z"
   id="path33"
   style="fill:#ffffff" />
	<path
   class="st1"
   d="M272.1,544.3c73.4,0,135.3-24.1,180.4-65.7l-87.7-68c-24.4,16.6-55.9,26-92.6,26c-71,0-131.2-47.9-152.8-112.3   H28.9v70.1C75.1,486.3,169.2,544.3,272.1,544.3z"
   id="path35"
   style="fill:#ffffff" />
	<path
   class="st2"
   d="M119.3,324.3c-11.4-33.8-11.4-70.4,0-104.2V150H28.9c-38.6,76.9-38.6,167.5,0,244.4L119.3,324.3z"
   id="path37"
   style="fill:#ffffff" />
	<path
   class="st3"
   d="M272.1,107.7c38.8-0.6,76.3,14,104.4,40.8l0,0l77.7-77.7C405,24.6,339.7-0.8,272.1,0C169.2,0,75.1,58,28.9,150   l90.4,70.1C140.8,155.6,201.1,107.7,272.1,107.7z"
   id="path39"
   style="fill:#ffffff" />
</g>
</svg>